<svg xmlns="http://www.w3.org/2000/svg" width="720" height="260" viewBox="0 0 720 260">
<g transform="translate(0,0)"><defs>
    <linearGradient id="skin" x1="0" y1="0" x2="1" y2="1"><stop offset="0" stop-color="#f3d2bc"/><stop offset="1" stop-color="#c99179"/></linearGradient>
    <linearGradient id="coat" x1="0" y1="0" x2="0.9" y2="1"><stop offset="0" stop-color="#252833"/><stop offset="1" stop-color="#0c0d12"/></linearGradient>
    <linearGradient id="white" x1="0" y1="0" x2="1" y2="1"><stop offset="0" stop-color="#fffdf7"/><stop offset="1" stop-color="#d9e0eb"/></linearGradient>
    <linearGradient id="purple" x1="0" y1="0" x2="1" y2="1"><stop offset="0" stop-color="#332044"/><stop offset="1" stop-color="#100d19"/></linearGradient>
    <linearGradient id="red" x1="0" y1="0" x2="1" y2="1"><stop offset="0" stop-color="#3a1b24"/><stop offset="1" stop-color="#111116"/></linearGradient>
  </defs>
  <rect width="180" height="260" fill="none"/>
  <ellipse cx="90" cy="77" rx="38" ry="47" fill="#e9d1c6" stroke="#72505c" stroke-width="2.5"/>
  <path d="M48 77Q43 36 73 17L90 8L107 18Q137 37 132 77L119 59L105 67L91 45L76 68L61 57Z" fill="#17121f" stroke="#74429a" stroke-width="2.5"/>
  <path d="M53 58Q63 29 88 21" fill="none" stroke="#3e284e" stroke-width="7"/>
  <path d="M67 81Q77 73 85 81M95 81Q103 73 113 81" fill="none" stroke="#3d284b" stroke-width="3"/>
  <circle cx="77" cy="84" r="3.2" fill="#a568df"/><circle cx="103" cy="84" r="3.2" fill="#a568df"/>
  <path d="M80 98Q90 103 100 98" fill="none" stroke="#82516e" stroke-width="2.5"/>
  <path d="M53 114Q90 128 127 114L157 245Q90 260 23 245Z" fill="url(#purple)" stroke="#713d91" stroke-width="3"/>
  <path d="M64 119L90 151L116 119L108 208L90 231L72 208Z" fill="#211629"/>
  <path d="M90 138L97 153L113 158L99 164L96 180L90 166L75 162L89 155Z" fill="#b46be0"/>
  <path d="M42 138L25 191M138 138L155 191" stroke="#1b1523" stroke-width="20" stroke-linecap="round"/>
  <path d="M155 193L166 212M166 212L153 207M166 212L159 222" fill="none" stroke="#b46be0" stroke-width="3"/>
  <circle cx="90" cy="119" r="4" fill="#b46be0"/>
  </g>
<g transform="translate(180,0)"><defs>
    <linearGradient id="skin" x1="0" y1="0" x2="1" y2="1"><stop offset="0" stop-color="#f3d2bc"/><stop offset="1" stop-color="#c99179"/></linearGradient>
    <linearGradient id="coat" x1="0" y1="0" x2="0.9" y2="1"><stop offset="0" stop-color="#252833"/><stop offset="1" stop-color="#0c0d12"/></linearGradient>
    <linearGradient id="white" x1="0" y1="0" x2="1" y2="1"><stop offset="0" stop-color="#fffdf7"/><stop offset="1" stop-color="#d9e0eb"/></linearGradient>
    <linearGradient id="purple" x1="0" y1="0" x2="1" y2="1"><stop offset="0" stop-color="#332044"/><stop offset="1" stop-color="#100d19"/></linearGradient>
    <linearGradient id="red" x1="0" y1="0" x2="1" y2="1"><stop offset="0" stop-color="#3a1b24"/><stop offset="1" stop-color="#111116"/></linearGradient>
  </defs>
  <rect width="180" height="260" fill="none"/>
  <ellipse cx="90" cy="77" rx="38" ry="47" fill="#e9d1c6" stroke="#72505c" stroke-width="2.5"/>
  <path d="M48 77Q43 36 73 17L90 8L107 18Q137 37 132 77L119 59L105 67L91 45L76 68L61 57Z" fill="#17121f" stroke="#74429a" stroke-width="2.5"/>
  <path d="M53 58Q63 29 88 21" fill="none" stroke="#3e284e" stroke-width="7"/>
  <path d="M67 81Q77 73 85 81M95 81Q103 73 113 81" fill="none" stroke="#3d284b" stroke-width="3"/>
  <circle cx="77" cy="84" r="3.2" fill="#a568df"/><circle cx="103" cy="84" r="3.2" fill="#a568df"/>
  <path d="M80 98Q90 103 100 98" fill="none" stroke="#82516e" stroke-width="2.5"/>
  <path d="M53 114Q90 128 127 114L157 245Q90 260 23 245Z" fill="url(#purple)" stroke="#713d91" stroke-width="3"/>
  <path d="M64 119L90 151L116 119L108 208L90 231L72 208Z" fill="#211629"/>
  <path d="M90 138L97 153L113 158L99 164L96 180L90 166L75 162L89 155Z" fill="#b46be0"/>
  <path d="M42 138L25 191M138 138L155 191" stroke="#1b1523" stroke-width="20" stroke-linecap="round"/>
  <path d="M155 193L166 212M166 212L153 207M166 212L159 222" fill="none" stroke="#b46be0" stroke-width="3"/>
  <circle cx="90" cy="119" r="4" fill="#b46be0"/>
  </g>
<g transform="translate(360,0)"><defs>
    <linearGradient id="skin" x1="0" y1="0" x2="1" y2="1"><stop offset="0" stop-color="#f3d2bc"/><stop offset="1" stop-color="#c99179"/></linearGradient>
    <linearGradient id="coat" x1="0" y1="0" x2="0.9" y2="1"><stop offset="0" stop-color="#252833"/><stop offset="1" stop-color="#0c0d12"/></linearGradient>
    <linearGradient id="white" x1="0" y1="0" x2="1" y2="1"><stop offset="0" stop-color="#fffdf7"/><stop offset="1" stop-color="#d9e0eb"/></linearGradient>
    <linearGradient id="purple" x1="0" y1="0" x2="1" y2="1"><stop offset="0" stop-color="#332044"/><stop offset="1" stop-color="#100d19"/></linearGradient>
    <linearGradient id="red" x1="0" y1="0" x2="1" y2="1"><stop offset="0" stop-color="#3a1b24"/><stop offset="1" stop-color="#111116"/></linearGradient>
  </defs>
  <rect width="180" height="260" fill="none"/>
  <ellipse cx="90" cy="77" rx="38" ry="47" fill="#e9d1c6" stroke="#72505c" stroke-width="2.5"/>
  <path d="M48 77Q43 36 73 17L90 8L107 18Q137 37 132 77L119 59L105 67L91 45L76 68L61 57Z" fill="#17121f" stroke="#74429a" stroke-width="2.5"/>
  <path d="M53 58Q63 29 88 21" fill="none" stroke="#3e284e" stroke-width="7"/>
  <path d="M67 81Q77 73 85 81M95 81Q103 73 113 81" fill="none" stroke="#3d284b" stroke-width="3"/>
  <circle cx="77" cy="84" r="3.2" fill="#a568df"/><circle cx="103" cy="84" r="3.2" fill="#a568df"/>
  <path d="M80 98Q90 103 100 98" fill="none" stroke="#82516e" stroke-width="2.5"/>
  <path d="M53 114Q90 128 127 114L157 245Q90 260 23 245Z" fill="url(#purple)" stroke="#713d91" stroke-width="3"/>
  <path d="M64 119L90 151L116 119L108 208L90 231L72 208Z" fill="#211629"/>
  <path d="M90 138L97 153L113 158L99 164L96 180L90 166L75 162L89 155Z" fill="#b46be0"/>
  <path d="M42 138L25 191M138 138L155 191" stroke="#1b1523" stroke-width="20" stroke-linecap="round"/>
  <path d="M155 193L166 212M166 212L153 207M166 212L159 222" fill="none" stroke="#b46be0" stroke-width="3"/>
  <circle cx="90" cy="119" r="4" fill="#b46be0"/>
  </g>
<g transform="translate(540,0)"><defs>
    <linearGradient id="skin" x1="0" y1="0" x2="1" y2="1"><stop offset="0" stop-color="#f3d2bc"/><stop offset="1" stop-color="#c99179"/></linearGradient>
    <linearGradient id="coat" x1="0" y1="0" x2="0.9" y2="1"><stop offset="0" stop-color="#252833"/><stop offset="1" stop-color="#0c0d12"/></linearGradient>
    <linearGradient id="white" x1="0" y1="0" x2="1" y2="1"><stop offset="0" stop-color="#fffdf7"/><stop offset="1" stop-color="#d9e0eb"/></linearGradient>
    <linearGradient id="purple" x1="0" y1="0" x2="1" y2="1"><stop offset="0" stop-color="#332044"/><stop offset="1" stop-color="#100d19"/></linearGradient>
    <linearGradient id="red" x1="0" y1="0" x2="1" y2="1"><stop offset="0" stop-color="#3a1b24"/><stop offset="1" stop-color="#111116"/></linearGradient>
  </defs>
  <rect width="180" height="260" fill="none"/>
  <ellipse cx="90" cy="77" rx="38" ry="47" fill="#e9d1c6" stroke="#72505c" stroke-width="2.5"/>
  <path d="M48 77Q43 36 73 17L90 8L107 18Q137 37 132 77L119 59L105 67L91 45L76 68L61 57Z" fill="#17121f" stroke="#74429a" stroke-width="2.5"/>
  <path d="M53 58Q63 29 88 21" fill="none" stroke="#3e284e" stroke-width="7"/>
  <path d="M67 81Q77 73 85 81M95 81Q103 73 113 81" fill="none" stroke="#3d284b" stroke-width="3"/>
  <circle cx="77" cy="84" r="3.2" fill="#a568df"/><circle cx="103" cy="84" r="3.2" fill="#a568df"/>
  <path d="M80 98Q90 103 100 98" fill="none" stroke="#82516e" stroke-width="2.5"/>
  <path d="M53 114Q90 128 127 114L157 245Q90 260 23 245Z" fill="url(#purple)" stroke="#713d91" stroke-width="3"/>
  <path d="M64 119L90 151L116 119L108 208L90 231L72 208Z" fill="#211629"/>
  <path d="M90 138L97 153L113 158L99 164L96 180L90 166L75 162L89 155Z" fill="#b46be0"/>
  <path d="M42 138L25 191M138 138L155 191" stroke="#1b1523" stroke-width="20" stroke-linecap="round"/>
  <path d="M155 193L166 212M166 212L153 207M166 212L159 222" fill="none" stroke="#b46be0" stroke-width="3"/>
  <circle cx="90" cy="119" r="4" fill="#b46be0"/>
  </g>
</svg>